<svg xmlns="http://www.w3.org/2000/svg" width="650" height="600" viewBox="0 0 150 150" fill="none">
<path d="M85.3408 44.8175C75.7362 44.8904 66.5102 42.7302 57.6877 40.3226C48.8649 37.9153 40.1139 35.2119 30.6981 34.1081C24.6416 33.3949 17.749 33.5069 12.9875 36.2696C8.4064 38.9258 7.0517 43.2789 6.38254 47.2967C5.87888 50.3201 5.6332 53.4923 7.406 56.2444C8.63697 58.1532 10.7574 59.7203 12.2489 61.5389C17.4421 67.8669 14.2226 76.0093 9.07274 82.5481C6.66076 85.611 3.83734 88.5587 1.99947 91.801C0.1616 95.0434 -0.603881 98.706 1.21375 101.879C3.01627 105.026 7.12369 107.292 11.5406 108.83C20.5124 111.957 30.9735 112.573 41.162 112.771C63.7129 113.209 86.322 111.874 108.869 110.541C117.214 110.048 125.595 109.55 133.774 108.224C138.315 107.487 142.994 106.409 146.227 104.09C150.332 101.144 151.206 96.3727 148.263 92.9656C143.326 87.2524 130.21 86.2541 126.681 80.0597C124.739 76.6498 126.468 72.7141 128.989 69.3988C134.41 62.2858 143.694 55.8892 143.913 47.9681C144.064 42.5305 139.298 37.2574 132.147 34.9406C124.649 32.5086 114.396 33.2126 109.094 37.8612C103.643 42.6397 93.8241 44.754 85.3408 44.8175Z" fill="#F1EDFC"/>
<path d="M130.269 94.5207C130.269 94.5207 129.749 91.4683 125.958 92.3777C125.958 92.3777 125.943 95.0167 129.65 95.2475L130.269 94.5207Z" fill="#003490"/>
<path d="M132.107 91.378C132.107 91.378 131.235 88.4054 127.478 89.2944C127.478 89.2944 128.373 91.9684 131.857 91.9266L132.107 91.378Z" fill="#003490"/>
<path d="M133.847 88.3088C133.847 88.3088 132.996 85.2238 129.368 86.1467C129.368 86.1467 130.578 89.0772 133.607 88.8314L133.847 88.3088Z" fill="#003490"/>
<path d="M134.969 85.3935C134.969 85.3935 134.315 81.6211 130.932 82.4558C130.932 82.4558 131.914 85.888 134.72 85.942L134.969 85.3935Z" fill="#003490"/>
<path d="M136.02 81.8712C136.02 81.8712 135.235 78.0677 131.812 79.1687C131.812 79.1687 133.155 82.763 135.778 82.3914L136.02 81.8712Z" fill="#003490"/>
<path d="M136.671 78.5927C136.671 78.5927 135.424 74.7908 132.779 74.8933C132.779 74.8933 134.054 78.9104 136.444 79.3521L136.671 78.5927Z" fill="#003490"/>
<path d="M137.085 75.3949C137.085 75.3949 135.728 70.8171 133.574 71.1698C133.574 71.1698 134.515 74.6696 137.008 76.1087L137.085 75.3949Z" fill="#003490"/>
<path d="M137.327 71.5744C137.327 71.5744 136.055 67.7599 133.933 67.6072C133.933 67.6072 134.798 71.3609 137.283 72.5646L137.327 71.5744Z" fill="#003490"/>
<path d="M137.577 68.0239C137.577 68.0239 135.99 64.2054 134.591 64.1189C134.591 64.1189 135.28 67.8793 137.441 68.651L137.577 68.0239Z" fill="#003490"/>
<path d="M137.753 64.7047C137.753 64.7047 136.779 60.5565 135.375 60.2134C135.375 60.2134 135.567 63.6063 137.612 65.0156L137.753 64.7047Z" fill="#003490"/>
<path d="M138.277 60.3693C138.277 60.3693 137.251 57.0641 136.115 56.5599C136.115 56.5599 136.34 60.4567 138.015 61.1782L138.277 60.3693Z" fill="#003490"/>
<path d="M138.719 57.5218L138.927 51.6938C138.927 51.6938 136.808 56.0926 138.563 58.5501L138.719 57.5218Z" fill="#003490"/>
<path d="M140.361 51.7302C140.361 51.7302 141.889 47.4747 142.26 47.2368C142.26 47.2368 139.261 49.9983 139.554 53.55L140.361 51.7302Z" fill="#003490"/>
<path d="M127.872 97.5396C127.872 97.5396 130.562 97.1882 130.481 100.974C130.481 100.974 128.05 101.368 127.257 98.2381L127.872 97.5396Z" fill="#003490"/>
<path d="M130.405 94.4173C130.405 94.4173 133.514 94.4079 133.255 98.2817C133.255 98.2817 130.646 98.7451 129.784 95.1497L130.405 94.4173Z" fill="#003490"/>
<path d="M132.137 91.6279C132.137 91.6279 134.959 90.3104 136.765 93.7115C136.765 93.7115 134.157 94.8086 131.888 92.1777L132.137 91.6279Z" fill="#003490"/>
<path d="M133.909 88.337C133.909 88.337 136.799 86.9356 138.496 90.2568C138.496 90.2568 135.487 91.2892 133.672 88.8623L133.909 88.337Z" fill="#003490"/>
<path d="M134.931 85.4757C134.931 85.4757 137.713 82.83 139.933 85.5052C139.933 85.5052 137.091 87.6806 134.804 86.0645L134.931 85.4757Z" fill="#003490"/>
<path d="M135.863 81.7806C135.863 81.7806 138.661 79.0781 140.863 81.9048C140.863 81.9048 137.722 84.1248 135.763 82.3478L135.863 81.7806Z" fill="#003490"/>
<path d="M136.387 78.4844C136.387 78.4844 138.542 75.1063 141.079 75.8617C141.079 75.8617 138.843 79.4382 136.409 79.2785L136.387 78.4844Z" fill="#003490"/>
<path d="M137.022 75.3733C137.022 75.3733 139.194 71.1182 141.247 71.8603C141.247 71.8603 139.682 75.13 136.966 76.091L137.022 75.3733Z" fill="#003490"/>
<path d="M137.171 71.3566C137.171 71.3566 139.404 68.0084 141.495 68.4164C141.495 68.4164 139.67 71.8119 136.955 72.3255L137.171 71.3566Z" fill="#003490"/>
<path d="M137.34 67.9415C137.34 67.9415 139.071 64.1852 140.479 64.1582C140.479 64.1582 139.647 67.889 137.457 68.5793L137.34 67.9415Z" fill="#003490"/>
<path d="M137.684 64.6233C137.684 64.6233 139.607 60.817 141.053 60.8104C141.053 60.8104 140.069 64.064 137.748 64.9573L137.684 64.6233Z" fill="#003490"/>
<path d="M137.973 60.6027C137.973 60.6027 139.412 57.4544 140.604 57.0978C140.604 57.0978 139.884 60.9352 138.132 61.4379L137.973 60.6027Z" fill="#003490"/>
<path d="M138.891 57.412L142.106 52.5369C142.106 52.5369 141.283 57.3472 138.422 58.3472L138.891 57.412Z" fill="#003490"/>
<path d="M141.098 52.1229C141.098 52.1229 144.836 49.5555 144.97 49.1393C144.97 49.1393 143.07 52.7362 139.541 53.3715L141.098 52.1229Z" fill="#003490"/>
<path d="M141.322 50.9676C141.322 50.9676 145.612 46.8625 146.707 46.8668C146.707 46.8668 143.169 47.0275 141.218 50.7501L141.322 50.9676Z" fill="#003490"/>
<path d="M138.015 61.2116L138.171 61.2317C138.977 54.9497 140.152 51.2345 141.481 50.7794L141.43 50.6307C140.021 51.117 138.84 54.7755 138.015 61.2116Z" fill="#444053"/>
<path d="M136.83 76.2305L137.066 76.2506C137.115 75.6641 137.153 75.0632 137.179 74.466C137.404 69.2673 137.753 64.4933 138.213 60.9145L138.077 60.7455C137.617 64.3311 137.17 69.2503 136.944 74.4565C136.92 75.0484 136.879 75.6483 136.83 76.2305Z" fill="#444053"/>
<path d="M118.746 104.67C118.788 104.653 122.946 102.804 127.261 98.3963C129.789 95.8148 131.889 92.8509 133.484 89.6148C135.478 85.5715 136.694 80.6024 137.103 75.7753L136.856 75.89C135.941 86.7251 130.984 94.1286 127.043 98.1612C122.771 102.529 118.661 104.358 118.62 104.376L118.746 104.67Z" fill="#444053"/>
<path d="M126.391 47.0562H26.0862V110.995H126.391V47.0562Z" fill="white"/>
<path d="M71.1672 55.6421H34.9557V92.6774H71.1672V55.6421Z" fill="#E6E6E6"/>
<path d="M120.923 56.36H84.7115V101.342H120.923V56.36Z" fill="#E6E6E6"/>
<path d="M120.44 115.644C124.022 115.644 126.927 115.231 126.927 114.722C126.927 114.212 124.022 113.799 120.44 113.799C116.858 113.799 113.953 114.212 113.953 114.722C113.953 115.231 116.858 115.644 120.44 115.644Z" fill="#E6E6E6"/>
<path d="M55.5868 115.665C59.1693 115.665 62.0734 115.252 62.0734 114.742C62.0734 114.233 59.1693 113.82 55.5868 113.82C52.0044 113.82 49.1002 114.233 49.1002 114.742C49.1002 115.252 52.0044 115.665 55.5868 115.665Z" fill="#E6E6E6"/>
<path d="M14.8874 114.53C23.1095 114.53 29.7749 114.212 29.7749 113.82C29.7749 113.428 23.1095 113.11 14.8874 113.11C6.66533 113.11 0 113.428 0 113.82C0 114.212 6.66533 114.53 14.8874 114.53Z" fill="#E6E6E6"/>
<path d="M126.349 46.9998H26.0433V51.2412H126.349V46.9998Z" fill="#003490"/>
<path d="M29.21 49.9542C29.6462 49.9542 29.9998 49.6022 29.9998 49.168C29.9998 48.7337 29.6462 48.3817 29.21 48.3817C28.7738 48.3817 28.4202 48.7337 28.4202 49.168C28.4202 49.6022 28.7738 49.9542 29.21 49.9542Z" fill="#E6E6E6"/>
<path d="M32.2082 49.9542C32.6444 49.9542 32.998 49.6022 32.998 49.168C32.998 48.7337 32.6444 48.3817 32.2082 48.3817C31.7719 48.3817 31.4183 48.7337 31.4183 49.168C31.4183 49.6022 31.7719 49.9542 32.2082 49.9542Z" fill="#E6E6E6"/>
<path d="M35.2057 49.9542C35.6419 49.9542 35.9955 49.6022 35.9955 49.168C35.9955 48.7337 35.6419 48.3817 35.2057 48.3817C34.7695 48.3817 34.4159 48.7337 34.4159 49.168C34.4159 49.6022 34.7695 49.9542 35.2057 49.9542Z" fill="#E6E6E6"/>
<path d="M112.939 68.4256H112.72V62.4447C112.72 60.5328 111.163 58.983 109.242 58.983H96.5106C94.5897 58.983 93.0326 60.5328 93.0326 62.4447V95.2575C93.0326 97.1691 94.5897 98.7189 96.5106 98.7189H109.242C111.163 98.7189 112.72 97.1691 112.72 95.2575V72.6834H112.939V68.4256Z" fill="#3F3D56"/>
<path d="M109.239 59.8839H107.578C107.835 60.5119 107.532 61.2287 106.901 61.485C106.753 61.5449 106.595 61.5757 106.435 61.5757H99.1419C98.4599 61.5757 97.9081 61.0257 97.9081 60.3475C97.9081 60.1886 97.9386 60.031 97.999 59.8839H96.4468C95.0122 59.8839 93.8494 61.0413 93.8494 62.469V95.2335C93.8494 96.6614 95.0122 97.8188 96.4468 97.8188H109.239C110.674 97.8188 111.837 96.6614 111.837 95.2335V62.469C111.837 61.041 110.674 59.8839 109.239 59.8839Z" fill="white"/>
<path d="M65.6712 79.0363H40.5021V80.1792H65.6712V79.0363Z" fill="#E6E6E6"/>
<path d="M65.6712 82.7259H40.5021V83.8685H65.6712V82.7259Z" fill="#003490"/>
<path d="M65.6712 86.4152H40.5021V87.5578H65.6712V86.4152Z" fill="#E6E6E6"/>
<path d="M110.333 81.5294H95.6393V82.6719H110.333V81.5294Z" fill="#E6E6E6"/>
<path d="M110.333 85.0773H95.6393V86.2201H110.333V85.0773Z" fill="#E6E6E6"/>
<path d="M110.333 88.6246H95.6393V89.7672H110.333V88.6246Z" fill="#E6E6E6"/>
<path d="M111.869 103.931H109.42V106.369H111.869V103.931Z" fill="#3F3D56"/>
<path d="M107.923 103.931H105.474V106.369H107.923V103.931Z" fill="#003490"/>
<path d="M103.978 103.931H101.529V106.369H103.978V103.931Z" fill="#3F3D56"/>
<path d="M100.033 103.931H97.5837V106.369H100.033V103.931Z" fill="#3F3D56"/>
<path d="M96.0871 103.931H93.6377V106.369H96.0871V103.931Z" fill="#3F3D56"/>
<path d="M106.925 66.722H98.762V74.8469H106.925V66.722Z" fill="#003490"/>
<path d="M49.8423 86.1061L49.7365 86.3162L49.4196 84.7384C49.4196 84.7384 48.9969 83.0552 49.8423 83.0552C50.6875 83.0552 50.4762 84.7384 50.4762 84.7384V85.8954L49.8423 86.1061Z" fill="#A0616A"/>
<path d="M63.7053 85.891L63.8111 86.1013L64.128 84.5235C64.128 84.5235 64.5507 82.8403 63.7053 82.8403C62.8601 82.8403 63.0715 84.5235 63.0715 84.5235V85.6803L63.7053 85.891Z" fill="#A0616A"/>
<path d="M54.4914 97.9323L53.2235 105.715L53.8573 113.286L55.3365 112.655L55.1254 106.977L56.6046 102.454L56.9215 107.818L56.2875 113.392L58.1894 113.602L59.5631 102.139L59.4573 98.248L54.4914 97.9323Z" fill="#2F2E41"/>
<path d="M54.4913 112.34L53.7517 113.497V116.082C53.7517 116.236 53.8637 116.367 54.0163 116.392C54.3791 116.451 55.0101 116.493 55.2309 116.126C55.5478 115.601 55.3367 114.444 55.3367 114.444C55.3367 114.444 55.7592 113.602 55.5481 112.971C55.337 112.34 55.1256 112.235 55.1256 112.235L54.4913 112.34Z" fill="#2F2E41"/>
<path d="M57.6612 113.391L57.8725 113.707C57.8725 113.707 58.1894 114.022 57.9783 114.233C57.8233 114.397 57.6819 114.572 57.5556 114.759C57.5556 114.759 56.3933 115.075 56.3933 114.654V113.287L57.6612 113.391Z" fill="#2F2E41"/>
<path d="M57.2804 89.3729C58.0539 89.3729 58.681 88.7487 58.681 87.9787C58.681 87.2087 58.0539 86.5845 57.2804 86.5845C56.5069 86.5845 55.8799 87.2087 55.8799 87.9787C55.8799 88.7487 56.5069 89.3729 57.2804 89.3729Z" fill="#A0616A"/>
<path d="M56.3402 88.4148L56.2346 90.4132L58.1365 90.5182L58.031 88.5199L56.3402 88.4148Z" fill="#A0616A"/>
<path d="M58.4005 90.5703L58.1007 89.8413C58.1007 89.8413 56.7102 89.3081 56.2875 89.8344L56.0761 90.4655L54.3855 90.0448L53.4346 92.1482L54.2797 98.1426C54.2797 98.1426 56.4988 100.982 59.4572 98.2479L60.3024 92.5691L59.6683 90.3607L58.4005 90.5703Z" fill="#575A89"/>
<path d="M59.4573 90.7809L59.6686 90.3604L61.7815 89.0982L63.071 85.299L64.0689 85.7245L62.9436 90.2554L59.8799 93.0946L59.4573 90.7809Z" fill="#575A89"/>
<path d="M54.5962 90.2554L54.3848 90.0448L52.1664 88.6781L50.5816 85.5229L49.3142 85.9436L50.6874 89.8347L54.068 92.5689L54.5962 90.2554Z" fill="#575A89"/>
<path d="M58.32 85.8438L58.5491 85.7298L58.2055 85.616V85.5023C58.2055 85.5023 56.488 84.8181 56.259 85.9583C55.6521 86.77 55.6521 87.8817 56.259 88.694V89.0357L58.091 89.2639L58.32 88.5797C58.3198 88.5794 59.4649 86.528 58.32 85.8438Z" fill="#2F2E41"/>
<path d="M16.4084 98.0555L16.0014 98.2582C16.0014 98.2582 14.3728 99.0011 14.848 99.4066C15.323 99.8116 16.6121 99.0011 16.6121 99.0011L16.8834 98.6635L16.4084 98.0555Z" fill="#FFB8B8"/>
<path d="M28.318 97.9545L27.0598 106.362L25.1602 112.237L24.1428 111.764L25.0924 103.728L22.379 101.432L22.5824 98.0555L28.318 97.9545Z" fill="#2F2E41"/>
<path d="M24.0074 111.967C24.0074 111.967 25.1608 111.359 25.2286 112.237L25.0929 113.115C25.0929 113.115 25.4999 114.669 24.1429 114.331C22.7859 113.993 23.7358 112.98 23.7358 112.98L24.0074 111.967Z" fill="#2F2E41"/>
<path d="M23.2609 100.689L22.379 101.432C22.379 101.432 22.379 106.024 22.9897 106.7C23.6001 107.375 27.4668 110.819 27.6023 110.954C27.7381 111.089 28.3487 109.603 28.3487 109.603L24.6856 105.349L24.9571 102.715L23.2609 100.689Z" fill="#2F2E41"/>
<path d="M27.9423 109.401C27.9423 109.401 29.028 109.198 29.028 109.941C29.0416 110.528 29.0867 111.115 29.1635 111.697C29.1635 111.697 29.4351 114.061 28.553 113.723C27.671 113.385 27.3315 111.021 27.3315 111.021C27.4138 110.825 27.5562 110.659 27.7386 110.548C28.0102 110.414 27.9423 109.401 27.9423 109.401Z" fill="#2F2E41"/>
<path d="M24.5503 87.926L24.7537 90.425L24.2108 91.3706L22.7183 89.9524L22.5825 88.0614L24.5503 87.926Z" fill="#FFB8B8"/>
<path d="M23.3291 88.737C24.2284 88.737 24.9574 88.0112 24.9574 87.116C24.9574 86.2208 24.2284 85.4951 23.3291 85.4951C22.4298 85.4951 21.7008 86.2208 21.7008 87.116C21.7008 88.0112 22.4298 88.737 23.3291 88.737Z" fill="#FFB8B8"/>
<path d="M24.0071 90.3575L24.6854 88.3992L25.9064 89.7498L28.1451 98.326L26.4492 99.3388L25.703 98.2582L25.5673 99.6761L22.2433 99.0012L21.972 89.9523L22.6501 89.0017L24.0071 90.3575Z" fill="#D0CDE1"/>
<path d="M23.057 99.9465L22.65 89.0066L21.7681 89.682L20.14 90.7622L21.2256 94.6114L21.5644 98.6634L23.057 99.9465Z" fill="#2F2E41"/>
<path d="M20.6144 90.83L20.1395 90.7622L18.7827 94.7463L16.0693 98.1234L17.087 99.2035L20.2073 96.1648L21.3605 93.6662L20.6144 90.83Z" fill="#2F2E41"/>
<path d="M28.0246 98.1174L27.9319 98.5609C27.9319 98.5609 27.5084 100.294 28.1223 100.173C28.7361 100.054 28.8962 98.5441 28.8962 98.5441L28.7983 98.1228L28.0246 98.1174Z" fill="#FFB8B8"/>
<path d="M24.5797 88.2889L27.9418 89.6141L27.5351 93.6661L28.3491 98.1232L27.5351 99.0009L24.5251 88.8629L24.5797 88.2889Z" fill="#2F2E41"/>
<path d="M23.4144 84.3941L23.8922 84.1561V84.3941L24.2109 84.2357V84.632C24.2109 84.632 25.406 85.5045 25.1667 86.535C24.9277 87.5661 24.9277 87.6454 24.9277 87.6454C24.9277 87.6454 24.6256 85.685 23.4308 86.0023C22.2357 86.3195 22.1396 86.3769 21.8212 87.2491L21.7346 87.6235C21.7346 87.623 20.387 84.5524 23.4144 84.3941Z" fill="#2F2E41"/>
<path d="M27.4676 89.6143H28.0101L28.892 94.3417V98.461L27.8067 98.258L26.9248 92.0458L27.4676 89.6143Z" fill="#2F2E41"/>
<path d="M20.5096 99.6111H0.504639V113.448H20.5096V99.6111Z" fill="#003490"/>
<path d="M10.5059 102.311C8.16513 102.311 6.26782 104.2 6.26782 106.529C6.26782 108.859 8.16539 110.748 10.5059 110.748C12.8467 110.748 14.7442 108.859 14.7442 106.529C14.7376 104.202 12.8438 102.318 10.5059 102.311ZM10.5059 103.576C11.2081 103.576 11.7773 104.143 11.7773 104.842C11.7773 105.541 11.2081 106.107 10.5059 106.107C9.80369 106.107 9.23444 105.541 9.23444 104.842C9.23701 104.144 9.80471 103.579 10.5059 103.576ZM10.5059 109.669C9.48628 109.665 8.53455 109.159 7.963 108.318C7.98349 107.474 9.65843 107.01 10.5059 107.01C11.3536 107.01 13.0285 107.474 13.049 108.318C12.477 109.158 11.5255 109.663 10.5059 109.669Z" fill="white"/>
<path d="M65.6075 59.899H40.516V74.2307H65.6075V59.899Z" fill="#B5B5B5"/>
<path d="M115.222 88.3253L115.338 87.5788C115.338 87.5788 116.016 86.0451 115.481 85.9625C114.945 85.8801 114.498 87.3399 114.498 87.3399L114.694 88.8986L115.222 88.3253Z" fill="#FFB8B8"/>
<path d="M120.706 92.5558L115.919 91.5988L115.363 88.1279L113.953 88.0198L114.023 92.5068L118.181 94.6777L120.706 92.5558Z" fill="#575A89"/>
<path opacity="0.2" d="M120.706 92.5558L115.919 91.5988L115.363 88.1279L113.953 88.0198L114.023 92.5068L118.181 94.6777L120.706 92.5558Z" fill="black"/>
<path d="M122.375 86.2645H107.682V87.4068H122.375V86.2645Z" fill="#003490"/>
<path d="M114.287 88.0691L114.288 87.3137C114.288 87.3137 114.724 85.6953 114.182 85.6951C113.639 85.6943 113.421 87.2048 113.421 87.2048L113.852 88.7158L114.287 88.0691Z" fill="#FFB8B8"/>
<path d="M120.519 90.2327L121.175 90.0733C122.109 90.0746 122.867 89.3217 122.869 88.3919C122.869 88.2795 122.858 88.1667 122.835 88.0566C122.837 86.8411 121.848 85.8547 120.628 85.8534C119.407 85.8516 118.416 86.8358 118.414 88.051C118.146 88.979 118.685 89.9478 119.617 90.2141C119.911 90.2985 120.221 90.3049 120.519 90.2327Z" fill="#2F2E41"/>
<path d="M116.655 101.128L117.19 106.955L118.158 112.675L119.784 112.676L119.574 107.066L118.716 100.267L116.655 101.128Z" fill="#2F2E41"/>
<path d="M118.376 112.351L117.291 112.997C117.291 112.997 115.556 113.211 115.88 113.751C116.205 114.291 120 113.972 120 113.756C120 113.54 119.893 112.353 119.677 112.353L118.376 112.351Z" fill="#2F2E41"/>
<path d="M121.455 100.624C121.455 100.624 121.424 101.457 120.664 102.751L120.768 106.743L124.664 111.711L123.253 112.896L118.489 107.495L117.306 101.02L118.825 99.5113L121.455 100.624Z" fill="#2F2E41"/>
<path d="M124.339 111.711C124.339 111.711 125.639 111.928 125.422 112.468C125.204 113.007 124.659 115.488 123.251 115.163C123.251 115.163 122.6 115.162 122.817 114.731C122.948 114.471 123.093 114.219 123.252 113.976L123.254 112.573L124.339 111.711Z" fill="#2F2E41"/>
<path d="M119.815 90.3419C120.713 90.3419 121.441 89.6172 121.441 88.7233C121.441 87.8293 120.713 87.1046 119.815 87.1046C118.917 87.1046 118.189 87.8293 118.189 88.7233C118.189 89.6172 118.917 90.3419 119.815 90.3419Z" fill="#FFB8B8"/>
<path d="M120.572 89.8034L120.57 91.6378L118.835 91.6355L119.055 89.8013L120.572 89.8034Z" fill="#FFB8B8"/>
<path d="M118.402 90.9873L118.928 90.8588L120.57 90.9899C120.57 90.9899 121.436 91.8545 121.328 92.0697C121.218 92.2855 120.67 97.5716 120.67 97.5716L121.641 101.349L118.172 101.561L116.438 101.343L116.772 94.5459C116.772 94.5459 116.016 92.7105 116.992 92.1723C117.543 91.8846 118.024 91.48 118.402 90.9873Z" fill="#575A89"/>
<path d="M120.353 91.4213L115.476 91.1994L114.396 87.8535L112.986 87.9593L113.739 92.3841L118.182 93.9L120.353 91.4213Z" fill="#575A89"/>
<path d="M122.954 87.5316C123.533 87.5316 124.003 87.0639 124.003 86.487C124.003 85.9101 123.533 85.4424 122.954 85.4424C122.374 85.4424 121.904 85.9101 121.904 86.487C121.904 87.0639 122.374 87.5316 122.954 87.5316Z" fill="#2F2E41"/>
<path d="M121.986 85.9257C121.986 85.3491 122.456 84.8822 123.035 84.8827C123.104 84.8827 123.173 84.8896 123.242 84.9031C122.718 84.6567 122.093 84.8796 121.846 85.4009C121.598 85.9222 121.822 86.5444 122.345 86.7908C122.422 86.827 122.504 86.8535 122.587 86.8703C122.22 86.6982 121.985 86.3302 121.986 85.9257Z" fill="#2F2E41"/>
<path d="M121.086 86.518L119.671 86.2584L118.583 86.9372C118.037 87.278 117.741 87.9035 117.823 88.5398L118.913 88.2652L119.157 87.6559L119.448 88.13L120.626 90.1814L121.819 89.5354L122.58 88.3493L121.086 86.518Z" fill="#2F2E41"/>
<path d="M65.5426 74.3462L65.6843 74.1L40.5851 59.7836L40.4434 60.0298L65.5426 74.3462Z" fill="white"/>
<path d="M40.583 74.3542L65.6764 60.0235L65.5345 59.7773L40.4411 74.1081L40.583 74.3542Z" fill="white"/>
<path d="M106.851 74.8978L107.053 74.6971L98.9277 66.6099L98.7261 66.8106L106.851 74.8978Z" fill="white"/>
<path d="M98.9284 74.899L107.054 66.8116L106.852 66.6111L98.7269 74.6985L98.9284 74.899Z" fill="white"/>
</svg>
